<svg width="240" height="233" viewBox="0 0 240 233" fill="none" xmlns="http://www.w3.org/2000/svg">
<g opacity="0.5" filter="url(#filter0_d_0_1)">
<path d="M236 199.38V115.878C236 51.8785 184.067 0 120 0C55.9332 0 4 51.8785 4 115.878V199.38C4.00068 202.791 4.87443 206.146 6.53827 209.125C8.20211 212.105 10.6008 214.61 13.5065 216.402C16.4122 218.195 19.7284 219.216 23.1402 219.368C26.552 219.52 29.946 218.798 33 217.271C38.2865 214.629 44.1782 213.431 50.0778 213.797C55.9775 214.164 61.6753 216.082 66.5936 219.357C72.1027 223.029 78.5772 224.988 85.2 224.988C91.8228 224.988 98.2973 223.029 103.806 219.357L107.901 216.645C111.484 214.259 115.694 212.985 120 212.985C124.306 212.985 128.516 214.259 132.099 216.645L136.194 219.368C141.703 223.04 148.177 225 154.8 225C161.423 225 167.897 223.04 173.406 219.368C178.326 216.091 184.026 214.172 189.928 213.805C195.83 213.439 201.724 214.639 207.012 217.283C210.066 218.807 213.46 219.527 216.871 219.373C220.282 219.219 223.597 218.197 226.502 216.403C229.406 214.609 231.803 212.104 233.465 209.124C235.128 206.145 236 202.791 236 199.38Z" fill="#BBFFCC"/>
</g>
<path d="M154.5 116C160.848 116 166 108.384 166 99C166 89.616 160.848 82 154.5 82C148.152 82 143 89.616 143 99C143 108.384 148.152 116 154.5 116Z" fill="#7CD8FF"/>
<path d="M154.5 116C160.848 116 166 108.384 166 99C166 89.616 160.848 82 154.5 82C148.152 82 143 89.616 143 99C143 108.384 148.152 116 154.5 116Z" fill="#7CD8FF"/>
<path d="M85.5 116C91.848 116 97 108.384 97 99C97 89.616 91.848 82 85.5 82C79.152 82 74 89.616 74 99C74 108.384 79.152 116 85.5 116Z" fill="#A6FFD5"/>
<path d="M85.5 116C91.848 116 97 108.384 97 99C97 89.616 91.848 82 85.5 82C79.152 82 74 89.616 74 99C74 108.384 79.152 116 85.5 116Z" fill="#A6FFD5"/>
<defs>
<filter id="filter0_d_0_1" x="0" y="0" width="240" height="233" filterUnits="userSpaceOnUse" color-interpolation-filters="sRGB">
<feFlood flood-opacity="0" result="BackgroundImageFix"/>
<feColorMatrix in="SourceAlpha" type="matrix" values="0 0 0 0 0 0 0 0 0 0 0 0 0 0 0 0 0 0 127 0" result="hardAlpha"/>
<feOffset dy="4"/>
<feGaussianBlur stdDeviation="2"/>
<feComposite in2="hardAlpha" operator="out"/>
<feColorMatrix type="matrix" values="0 0 0 0 0 0 0 0 0 0 0 0 0 0 0 0 0 0 0.25 0"/>
<feBlend mode="normal" in2="BackgroundImageFix" result="effect1_dropShadow_0_1"/>
<feBlend mode="normal" in="SourceGraphic" in2="effect1_dropShadow_0_1" result="shape"/>
</filter>
</defs>
</svg>
